<svg xmlns="http://www.w3.org/2000/svg" viewBox="0 0 64 64"><defs><mask id="bands" maskUnits="userSpaceOnUse" x="0" y="0" width="64" height="64"><rect width="64" height="64" fill="#fff"/><g fill="#000"><rect x="15" y="18" width="2.8" height="30"/><rect x="21.4" y="18" width="2.8" height="30"/><rect x="27.8" y="18" width="2.8" height="30"/><circle cx="44.6" cy="29.4" r="3.9"/></g><circle cx="44.6" cy="29.4" r="1.5" fill="#fff"/></mask></defs><g fill="#000"><path d="M8 34 L1.5 25.5 L4.2 34 L1.5 42.5 Z"/><path mask="url(#bands)" d="M8 34 C15 23 35 19.5 53 30.5 C36 43 15 45 8 34 Z"/><path d="M25.5 36.8 L41.5 34.6 L32.6 53.2 L24.2 53.2 Z"/><path d="M11.5 29 L6.5 19 C6 18 7 17 8 17.6 L16.5 26.6 Z"/><circle cx="54.6" cy="30.5" r="2.1"/></g></svg>
